<mxfile host="Electron" modified="2023-04-12T11:04:02.258Z" agent="Mozilla/5.0 (Windows NT 10.0; Win64; x64) AppleWebKit/537.36 (KHTML, like Gecko) draw.io/21.1.2 Chrome/106.0.5249.199 Electron/21.4.3 Safari/537.36" etag="biC1oqMJ4MPa_-3AoWrT" version="21.1.2" type="device">
  <diagram name="Page-1" id="sWK5PXKDJPpe1fNAUxAf">
    <mxGraphModel dx="1790" dy="725" grid="1" gridSize="10" guides="1" tooltips="1" connect="1" arrows="1" fold="1" page="1" pageScale="1" pageWidth="827" pageHeight="1169" math="0" shadow="0">
      <root>
        <mxCell id="0" />
        <mxCell id="1" parent="0" />
        <mxCell id="z1qvzt6ptcCuD8RXyCfl-1" value="&lt;p style=&quot;margin: 4px 0px 0px; text-align: center; font-size: 19px;&quot;&gt;&lt;font style=&quot;font-size: 19px;&quot;&gt;Car Tuning Configurator&lt;/font&gt;&lt;/p&gt;&lt;hr style=&quot;font-size: 19px;&quot; size=&quot;1&quot;&gt;&lt;div style=&quot;height:2px;&quot;&gt;&lt;/div&gt;" style="verticalAlign=top;align=left;overflow=fill;fontSize=12;fontFamily=Helvetica;html=1;whiteSpace=wrap;fillColor=#f8cecc;strokeColor=#b85450;" vertex="1" parent="1">
          <mxGeometry x="200" y="330" width="390" height="540" as="geometry" />
        </mxCell>
        <mxCell id="XtTe-Nhc73TM7n1U2t8A-3" value="&lt;font style=&quot;font-size: 19px;&quot;&gt;User&lt;/font&gt;" style="shape=umlActor;verticalLabelPosition=bottom;verticalAlign=top;html=1;outlineConnect=0;" parent="1" vertex="1">
          <mxGeometry x="70" y="585" width="60" height="120" as="geometry" />
        </mxCell>
        <mxCell id="XtTe-Nhc73TM7n1U2t8A-8" value="&lt;span style=&quot;font-size: 18px;&quot;&gt;View Tuning Items&lt;/span&gt;" style="ellipse;whiteSpace=wrap;html=1;" parent="1" vertex="1">
          <mxGeometry x="310" y="630" width="170" height="90" as="geometry" />
        </mxCell>
        <mxCell id="XtTe-Nhc73TM7n1U2t8A-10" value="" style="endArrow=none;html=1;rounded=0;" parent="1" source="XtTe-Nhc73TM7n1U2t8A-8" target="XtTe-Nhc73TM7n1U2t8A-3" edge="1">
          <mxGeometry width="50" height="50" relative="1" as="geometry">
            <mxPoint x="500" y="600" as="sourcePoint" />
            <mxPoint x="550" y="550" as="targetPoint" />
          </mxGeometry>
        </mxCell>
        <mxCell id="XtTe-Nhc73TM7n1U2t8A-11" value="&lt;font style=&quot;font-size: 18px;&quot;&gt;Add Tuning Items&lt;/font&gt;" style="ellipse;whiteSpace=wrap;html=1;" parent="1" vertex="1">
          <mxGeometry x="310" y="400" width="170" height="90" as="geometry" />
        </mxCell>
        <mxCell id="XtTe-Nhc73TM7n1U2t8A-12" value="" style="endArrow=none;html=1;rounded=0;" parent="1" source="XtTe-Nhc73TM7n1U2t8A-3" target="XtTe-Nhc73TM7n1U2t8A-11" edge="1">
          <mxGeometry width="50" height="50" relative="1" as="geometry">
            <mxPoint x="560" y="585" as="sourcePoint" />
            <mxPoint x="610" y="535" as="targetPoint" />
          </mxGeometry>
        </mxCell>
        <mxCell id="XtTe-Nhc73TM7n1U2t8A-13" value="&lt;font style=&quot;font-size: 18px;&quot;&gt;Remove Tuning Items&lt;/font&gt;" style="ellipse;whiteSpace=wrap;html=1;" parent="1" vertex="1">
          <mxGeometry x="310" y="515" width="170" height="90" as="geometry" />
        </mxCell>
        <mxCell id="XtTe-Nhc73TM7n1U2t8A-14" value="" style="endArrow=none;html=1;rounded=0;" parent="1" source="XtTe-Nhc73TM7n1U2t8A-13" target="XtTe-Nhc73TM7n1U2t8A-3" edge="1">
          <mxGeometry width="50" height="50" relative="1" as="geometry">
            <mxPoint x="490" y="635" as="sourcePoint" />
            <mxPoint x="540" y="585" as="targetPoint" />
          </mxGeometry>
        </mxCell>
        <mxCell id="XtTe-Nhc73TM7n1U2t8A-15" value="&lt;font style=&quot;font-size: 18px;&quot;&gt;Select Car&lt;/font&gt;" style="ellipse;whiteSpace=wrap;html=1;" parent="1" vertex="1">
          <mxGeometry x="310" y="740" width="170" height="90" as="geometry" />
        </mxCell>
        <mxCell id="XtTe-Nhc73TM7n1U2t8A-23" value="" style="endArrow=none;html=1;rounded=0;" parent="1" source="XtTe-Nhc73TM7n1U2t8A-15" target="XtTe-Nhc73TM7n1U2t8A-3" edge="1">
          <mxGeometry width="50" height="50" relative="1" as="geometry">
            <mxPoint x="550" y="840" as="sourcePoint" />
            <mxPoint x="600" y="790" as="targetPoint" />
          </mxGeometry>
        </mxCell>
      </root>
    </mxGraphModel>
  </diagram>
</mxfile>